<svg version="1.1" viewBox="0.0 0.0 85.33333333333333 85.33333333333333" fill="none" stroke="none" stroke-linecap="square" stroke-miterlimit="10" xmlns:xlink="http://www.w3.org/1999/xlink" xmlns="http://www.w3.org/2000/svg"><clipPath id="p.0"><path d="m0 0l85.333336 0l0 85.333336l-85.333336 0l0 -85.333336z" clip-rule="nonzero"/></clipPath><g clip-path="url(#p.0)"><path fill="#000000" fill-opacity="0.0" d="m0 0l85.333336 0l0 85.333336l-85.333336 0z" fill-rule="evenodd"/><path fill="#000000" fill-opacity="0.0" d="m0.005249344 0.005249344l85.32284 0l0 85.32284l-85.32284 0z" fill-rule="evenodd"/><path fill="#000000" d="m37.31999 52.542747l0 11.59375l8.4375 0q0.875 0 1.25 0.34375q0.390625 0.34375 0.390625 0.890625q0 0.53125 -0.390625 0.890625q-0.375 0.34375 -1.25 0.34375l-14.203125 0q-0.890625 0 -1.265625 -0.34375q-0.375 -0.359375 -0.375 -0.890625q0 -0.546875 0.375 -0.890625q0.375 -0.34375 1.265625 -0.34375l3.3125 0l0 -29.34375l-3.3125 0q-0.890625 0 -1.265625 -0.328125q-0.375 -0.34375 -0.375 -0.90625q0 -0.5625 0.375 -0.890625q0.375 -0.34375 1.265625 -0.34375l14.296875 0q5.0625 0 8.265625 3.0q3.21875 2.984375 3.21875 7.0q0 2.359375 -1.046875 4.265625q-1.03125 1.90625 -2.5 3.0q-2.203125 1.640625 -4.546875 2.390625q-1.703125 0.5625 -4.21875 0.5625l-7.703125 0zm0 -2.46875l7.859375 0q2.71875 0 5.109375 -1.203125q2.390625 -1.21875 3.484375 -2.96875q1.09375 -1.765625 1.09375 -3.578125q0 -2.90625 -2.5 -5.21875q-2.484375 -2.3125 -6.28125 -2.3125l-8.765625 0l0 15.28125z" fill-rule="nonzero"/></g></svg>