<svg version="1.1" viewBox="0.0 0.0 85.33333333333333 85.33333333333333" fill="none" stroke="none" stroke-linecap="square" stroke-miterlimit="10" xmlns:xlink="http://www.w3.org/1999/xlink" xmlns="http://www.w3.org/2000/svg"><clipPath id="p.0"><path d="m0 0l85.333336 0l0 85.333336l-85.333336 0l0 -85.333336z" clip-rule="nonzero"/></clipPath><g clip-path="url(#p.0)"><path fill="#000000" fill-opacity="0.0" d="m0 0l85.333336 0l0 85.333336l-85.333336 0z" fill-rule="evenodd"/><path fill="#000000" fill-opacity="0.0" d="m14.679498 -17.60104l91.93701 91.93701l-21.637802 21.637794l-91.937004 -91.937004z" fill-rule="evenodd"/><path fill="#000000" d="m14.824455 3.5997877l-1.4252615 1.425262l-0.8175926 -0.81759214l1.4252625 -1.4252622l0.81759167 0.8175924zm-2.817378 2.8394756l-5.1265244 5.126524l2.1655145 2.165515q0.20992279 0.20992184 0.20992279 0.3646021q0.011048317 0.16572762 -0.11048603 0.28726196q-0.121533394 0.121533394 -0.28726196 0.11048508q-0.1546793 0 -0.3646021 -0.20992184l-4.883456 -4.883456q-0.1878252 -0.1878252 -0.19887376 -0.35355377q-0.011048555 -0.16572857 0.110485315 -0.28726196q0.12153411 -0.12153435 0.2872622 -0.11048603q0.16572809 0.011049271 0.3535533 0.19887447l2.1655145 2.165514l4.574097 -4.5740967l-1.6020384 -1.6020389q-0.19887447 -0.198874 -0.20992279 -0.3646021q-0.011048317 -0.16572809 0.11048508 -0.28726196q0.12153435 -0.12153387 0.28726292 -0.110485554q0.16572762 0.011048794 0.36460114 0.20992231l2.1544666 2.1544662zm9.244523 9.951631q0.18782616 -0.18782616 0.3425045 -0.18782616q0.16572952 -0.011047363 0.28726196 0.11048508q0.12153435 0.12153435 0.110486984 0.28726387q0 0.15467834 -0.20992279 0.36460114l-0.93912697 0.93912697q-0.19887352 0.19887352 -0.36460114 0.20992088q-0.15468025 0 -0.2762146 -0.12153244q-0.12153244 -0.12153435 -0.13258171 -0.26516533q0.011049271 -0.14363098 0.16572762 -0.32040787q0.3425045 -0.43089294 0.23201942 -1.049612q-0.16572762 -0.9170294 -1.049612 -1.8009129q-0.9280777 -0.9280777 -1.8119602 -1.0606604q-0.67396164 -0.09943676 -1.0164661 0.2430687q-0.39774704 0.39774704 -0.20992279 1.1159029q0.14363098 0.4971838 0.9280777 1.480505q1.0164661 1.2595329 1.3037281 1.878252q0.39774704 0.8617859 0.29831123 1.5799408q-0.07733917 0.7181568 -0.5524273 1.193243q-0.6960583 0.6960583 -1.9224472 0.5745239q-1.226388 -0.12153244 -2.5411644 -1.4363098q-1.3037281 -1.3037281 -1.4694567 -2.7952824q-0.22097015 0.22097206 -0.3204069 0.25411797q-0.08838844 0.044193268 -0.19887447 0.022096634q-0.11048508 -0.022096634 -0.19887352 -0.11048508q-0.12153435 -0.12153435 -0.12153435 -0.2762146q0.011049271 -0.16572762 0.20992279 -0.36460114l1.1379995 -1.1380005q0.19887447 -0.19887352 0.35355377 -0.19887352q0.16572857 -0.011048317 0.28726196 0.11048508q0.12153435 0.12153435 0.11048603 0.28726196q0 0.15468025 -0.13258266 0.28726196q-0.29831123 0.29831123 -0.35355377 0.66291237q-0.077340126 0.5413799 0.20992279 1.2484856q0.29831028 0.7181568 1.0275145 1.4473591q1.0717087 1.0717087 1.9887381 1.193243q0.93912506 0.12153435 1.3810673 -0.32040787q0.508234 -0.5082321 0.28726196 -1.3479214q-0.23201942 -0.8507385 -1.1600971 -1.9776897q-0.9170284 -1.1379995 -1.1932421 -1.7456703q-0.26516533 -0.61871815 -0.17677689 -1.2153397q0.08838844 -0.59662056 0.47508717 -0.98332024q0.7181549 -0.7181549 1.8230095 -0.43089294q1.1159039 0.27621365 2.0881748 1.2484856q1.1380005 1.1379995 1.3037281 2.4085827zm7.90765 10.183649l-0.7844467 0.7844467l-5.6237087 -5.6237087l0.7844467 -0.7844467l5.6237087 5.6237087zm2.957903 11.332699l0.80654144 -0.80654526q-2.165514 -0.11048508 -3.469242 -1.4142113q-0.80654335 -0.80654526 -0.7844448 -1.6683311q0.022096634 -1.1269531 0.7954941 -1.9003487l3.5576305 -3.5576324l-0.74025345 -0.74025154q-0.19887161 -0.19887352 -0.20991898 -0.36460304q0 -0.15467834 0.12153244 -0.2762127q0.12153244 -0.12153435 0.2762146 -0.12153435q0.16572571 0.011049271 0.36460114 0.20992279l1.2926788 1.2926788l-4.110058 4.110058q-0.541378 0.541378 -0.5524273 1.2374382q0 0.685009 0.508234 1.1932411q1.3479214 1.3479233 3.7123108 1.2374382l3.5576286 -3.5576324l-1.0164642 -1.0164642q-0.19887543 -0.19887352 -0.20992279 -0.36460304q-0.011047363 -0.16572762 0.11048508 -0.28726196q0.121536255 -0.12153435 0.28726196 -0.11048508q0.16572952 0.011049271 0.36460114 0.20992279l1.5578461 1.5578442l-5.126526 5.126526l0.47509003 0.4750862q0.18782425 0.18782425 0.19887161 0.35355377q0.011051178 0.16572571 -0.11048508 0.28726196q-0.12153244 0.12153244 -0.28726196 0.11048508q-0.16572571 -0.011047363 -0.35355377 -0.19887543l-1.0164642 -1.0164642zm13.321434 2.670639q0.18782806 -0.18782425 0.3425064 -0.18782425q0.16572952 -0.011047363 0.28726196 0.11048508q0.12153244 0.12153244 0.11048508 0.28726196q0 0.15467834 -0.20992279 0.36460114l-0.93912506 0.9391289q-0.19887543 0.19887161 -0.36460114 0.20991898q-0.15468216 0 -0.2762146 -0.12153244q-0.12153244 -0.12153244 -0.13258362 -0.26516342q0.011051178 -0.14363098 0.16572952 -0.32040787q0.3425026 -0.43089294 0.23201752 -1.049614q-0.16572571 -0.9170265 -1.0496101 -1.800911q-0.9280777 -0.9280777 -1.8119621 -1.0606613q-0.67396164 -0.09943771 -1.0164642 0.2430687q-0.39774704 0.39774704 -0.20992279 1.115902q0.14363098 0.49718475 0.9280777 1.4805069q1.0164642 1.2595329 1.3037262 1.8782501q0.39775085 0.8617859 0.29831314 1.5799408q-0.07733917 0.7181587 -0.5524292 1.1932449q-0.69605637 0.69605637 -1.9224472 0.5745239q-1.226387 -0.12153244 -2.5411644 -1.4363098q-1.3037262 -1.30373 -1.4694557 -2.7952843q-0.22097015 0.22097397 -0.32040787 0.25411987q-0.088386536 0.044193268 -0.19887161 0.022094727q-0.11048889 -0.022094727 -0.19887543 -0.11048508q-0.12153244 -0.12153244 -0.12153244 -0.2762146q0.011047363 -0.16572571 0.20991898 -0.36460114l1.1380005 -1.1380005q0.19887543 -0.19887161 0.35355377 -0.19887161q0.16572952 -0.011051178 0.28726196 0.11048508q0.121536255 0.12153244 0.11048508 0.28726196q0 0.15467834 -0.1325798 0.28726196q-0.29831314 0.29830933 -0.35355377 0.66291046q-0.07733917 0.54138184 0.20992279 1.2484856q0.29830933 0.7181587 1.0275116 1.447361q1.0717087 1.0717087 1.988739 1.1932411q0.93912506 0.121536255 1.3810692 -0.32040787q0.5082321 -0.5082321 0.28726196 -1.3479195q-0.23202133 -0.8507385 -1.160099 -1.9776917q-0.9170265 -1.1380005 -1.1932411 -1.7456703q-0.26516342 -0.6187172 -0.17677689 -1.2153397q0.088386536 -0.59661865 0.4750862 -0.9833183q0.7181549 -0.7181549 1.8230095 -0.43089294q1.1159058 0.27621078 2.0881767 1.2484856q1.1380005 1.1380005 1.3037262 2.4085808zm6.603924 11.840931l-5.6237106 -5.623707q-0.9170265 1.226387 -0.8175926 2.629551q0.09943771 1.4031677 1.2042923 2.5080223q0.6187172 0.6187172 1.4915543 1.0938034q0.88388443 0.46403885 1.6462326 0.56347656q0.22097015 0.022098541 0.3093605 0.11048508q0.11048508 0.11048508 0.0994339 0.2762146q0 0.15467834 -0.11048508 0.26516342q-0.11048508 0.11048508 -0.32040787 0.09943771q-0.64081573 0.022098541 -1.7346191 -0.49718475q-1.0938072 -0.5192795 -1.9334946 -1.3589706q-1.4142151 -1.4142151 -1.4363136 -3.2924652q-0.022094727 -1.8782539 1.30373 -3.2040787q1.1932411 -1.1932411 2.9389114 -1.1711464q1.7567177 0.033145905 3.071495 1.3479233q1.3479233 1.3479233 1.3368759 3.104641q-0.011051178 1.7567177 -1.4252625 3.1488342zm0 -1.1269493q0.74024963 -1.0717087 0.6187172 -2.3422928q-0.12153244 -1.2705803 -1.082756 -2.231804q-0.97227097 -0.9722748 -2.242855 -1.0938072q-1.2484856 -0.12153244 -2.3422928 0.6187172l5.0491867 5.0491867zm10.879707 0.9581146l-7.6787376 7.6787376l2.165516 2.165516q0.19887161 0.19887161 0.20991898 0.36460114q0.011051178 0.16572952 -0.11048508 0.28726196q-0.12153244 0.12153244 -0.28726196 0.11048508q-0.16572571 -0.011047363 -0.36460114 -0.20992279l-4.883457 -4.883457q-0.19887161 -0.19887161 -0.20992279 -0.36460114q0 -0.15467834 0.121536255 -0.2762146q0.12153244 -0.12153244 0.2762146 -0.12153244q0.16572571 0.011047363 0.36460114 0.20992279l2.165512 2.165516l7.1263123 -7.1263123l-1.5799408 -1.5799408q-0.19887543 -0.19887543 -0.20992279 -0.36460114q-0.011047363 -0.16572952 0.11048508 -0.28726196q0.12153244 -0.121536255 0.2762146 -0.121536255q0.16572571 0.011047363 0.3756485 0.22097015l2.13237 2.13237zm5.2449493 16.293495l-5.623707 -5.6237106q-0.91703033 1.226387 -0.8175926 2.6295547q0.09943771 1.4031677 1.2042923 2.5080185q0.6187172 0.618721 1.4915543 1.0938034q0.8838806 0.46404266 1.6462326 0.56347656q0.22097015 0.022102356 0.3093567 0.11048889q0.11048889 0.11048126 0.0994339 0.2762146q0 0.15467834 -0.11048126 0.2651596q-0.11048889 0.11048889 -0.32041168 0.09944153q-0.64081573 0.022094727 -1.7346191 -0.49718475q-1.0938034 -0.5192795 -1.9334946 -1.3589706q-1.4142113 -1.4142151 -1.4363098 -3.2924652q-0.022098541 -1.8782539 1.3037262 -3.2040787q1.1932449 -1.1932449 2.9389114 -1.1711464q1.7567215 0.033145905 3.071495 1.3479233q1.3479233 1.3479195 1.3368759 3.104641q-0.011047363 1.7567139 -1.4252625 3.1488342zm0 -1.1269531q0.74024963 -1.0717087 0.618721 -2.3422928q-0.121536255 -1.2705803 -1.082756 -2.231804q-0.9722748 -0.97227097 -2.242859 -1.0938072q-1.2484818 -0.12153244 -2.342289 0.618721l5.049183 5.049183zm9.520737 5.4106827q0.18782806 -0.18782806 0.3425064 -0.18782806q0.16572571 -0.011047363 0.28726196 0.11048889q0.121536255 0.121528625 0.11048889 0.28726196q0 0.15467834 -0.20992279 0.36460114l-0.9391327 0.93912506q-0.1988678 0.19887543 -0.36460114 0.20992279q-0.15467834 0 -0.2762146 -0.121536255q-0.121528625 -0.121536255 -0.13257599 -0.26516724q0.011047363 -0.14363098 0.16572571 -0.32040405q0.3425064 -0.43089294 0.23201752 -1.049614q-0.16572571 -0.91703033 -1.049614 -1.800911q-0.92807007 -0.9280777 -1.8119583 -1.0606613q-0.6739578 -0.0994339 -1.0164642 0.24306488q-0.39775085 0.39775085 -0.20992279 1.1159058q0.14363098 0.49718475 0.9280777 1.4805069q1.0164642 1.2595291 1.3037262 1.8782501q0.39775085 0.8617859 0.29830933 1.5799408q-0.07733917 0.7181549 -0.55242157 1.1932449q-0.6960602 0.6960602 -1.9224472 0.5745239q-1.226387 -0.121536255 -2.5411682 -1.4363098q-1.3037262 -1.3037262 -1.4694519 -2.7952805q-0.22097778 0.22097015 -0.32041168 0.25411224q-0.088386536 0.044197083 -0.19887543 0.022102356q-0.11048126 -0.022102356 -0.1988678 -0.11048889q-0.121536255 -0.121536255 -0.121536255 -0.2762146q0.011047363 -0.16572571 0.20992279 -0.36460114l1.1380005 -1.1380005q0.1988678 -0.19887543 0.35355377 -0.19887543q0.16572571 -0.011047363 0.28726196 0.11048889q0.121528625 0.121536255 0.11048126 0.28726196q0 0.15467834 -0.13258362 0.28726196q-0.29830933 0.29830933 -0.35355377 0.66291046q-0.07733917 0.54138184 0.20992279 1.2484894q0.29831696 0.7181549 1.0275192 1.4473572q1.0717087 1.0717087 1.988739 1.1932449q0.93912506 0.121528625 1.3810654 -0.32041168q0.5082321 -0.5082321 0.28726196 -1.3479233q-0.23201752 -0.8507385 -1.1600952 -1.977684q-0.91703033 -1.1380005 -1.1932449 -1.7456741q-0.26516724 -0.6187134 -0.17677307 -1.2153397q0.088386536 -0.59661865 0.4750824 -0.98332214q0.7181549 -0.7181549 1.8230133 -0.43089294q1.1158981 0.2762146 2.088173 1.2484894q1.1380005 1.1380005 1.3037262 2.4085846z" fill-rule="nonzero"/><path fill="#000000" d="m-2.367078 23.884912q0.1878252 -0.18782425 0.34250474 -0.18782425q0.16572821 -0.011049271 0.2872622 0.11048508q0.12153399 0.12153435 0.110485435 0.28726196q0 0.15468025 -0.20992231 0.36460304l-0.93912613 0.93912506q-0.19887376 0.19887352 -0.36460185 0.20992279q-0.15467978 0 -0.27621365 -0.12153435q-0.12153411 -0.12153435 -0.13258266 -0.26516533q0.011048555 -0.14363098 0.16572833 -0.32040787q0.34250474 -0.43089294 0.23201942 -1.0496101q-0.16572833 -0.91703033 -1.0496116 -1.8009129q-0.9280777 -0.9280777 -1.8119612 -1.0606613q-0.67396116 -0.099435806 -1.0164661 0.2430687q-0.39774752 0.39774704 -0.20992231 1.115902q0.14363098 0.49718475 0.9280777 1.480505q1.0164661 1.2595348 1.3037281 1.8782539q0.39774752 0.8617859 0.29831076 1.5799408q-0.077340126 0.7181549 -0.5524273 1.193243q-0.6960583 0.6960583 -1.9224467 0.5745239q-1.226388 -0.12153435 -2.5411644 -1.4363098q-1.3037281 -1.3037281 -1.4694567 -2.7952824q-0.22097111 0.22097015 -0.32040787 0.25411606q-0.08838844 0.044195175 -0.19887352 0.022098541q-0.11048603 -0.022098541 -0.19887352 -0.110486984q-0.12153435 -0.12153244 -0.12153435 -0.2762127q0.011048317 -0.16572762 0.20992184 -0.36460304l1.1380005 -1.1379986q0.19887352 -0.19887352 0.35355377 -0.19887352q0.16572762 -0.011049271 0.28726196 0.11048508q0.121533394 0.12153435 0.11048508 0.28726196q0 0.15468025 -0.13258266 0.28726196q-0.29831028 0.29831123 -0.35355282 0.66291237q-0.077340126 0.541378 0.20992184 1.2484856q0.29831123 0.7181549 1.0275145 1.4473591q1.0717087 1.0717087 1.9887381 1.193243q0.939126 0.12153435 1.3810678 -0.32040787q0.5082331 -0.508234 0.28726244 -1.3479233q-0.23201942 -0.8507366 -1.1600971 -1.9776878q-0.9170294 -1.1380005 -1.193243 -1.7456703q-0.26516438 -0.6187191 -0.17677689 -1.2153397q0.08838892 -0.59662247 0.47508764 -0.98332024q0.7181554 -0.7181549 1.82301 -0.43089294q1.1159029 0.2762127 2.0881746 1.2484856q1.138 1.1379986 1.3037281 2.4085808z" fill-rule="nonzero"/></g></svg>